<svg width="23" height="23" viewBox="0 0 23 23" fill="none" xmlns="http://www.w3.org/2000/svg">
<path d="M23 15.9219C20.7718 16.9298 18.2893 17.2347 15.8834 16.7961C13.4775 16.3576 11.2623 15.1963 9.533 13.467C7.80372 11.7377 6.64243 9.52255 6.20386 7.11662C5.76528 4.71069 6.07025 2.22824 7.07812 0C5.30418 0.801676 3.75121 2.02174 2.55244 3.55551C1.35366 5.08929 0.544869 6.89099 0.195448 8.80605C-0.153972 10.7211 -0.03359 12.6923 0.546268 14.5506C1.12613 16.409 2.14815 18.0988 3.52465 19.4753C4.90116 20.8519 6.59105 21.8739 8.44936 22.4537C10.3077 23.0336 12.2789 23.154 14.194 22.8046C16.109 22.4551 17.9107 21.6463 19.4445 20.4476C20.9783 19.2488 22.1983 17.6958 23 15.9219Z" fill="#04132B"/>
</svg>
