<svg width="22" height="21" viewBox="0 0 22 21" fill="none" xmlns="http://www.w3.org/2000/svg">
<path fill-rule="evenodd" clip-rule="evenodd" d="M11 2.09998C11.2917 2.09998 11.5715 2.2106 11.7778 2.40751C11.9841 2.60443 12.1 2.8715 12.1 3.14998V4.19998C12.1 4.47845 11.9841 4.74552 11.7778 4.94244C11.5715 5.13935 11.2917 5.24998 11 5.24998C10.7082 5.24998 10.4284 5.13935 10.2221 4.94244C10.0158 4.74552 9.89995 4.47845 9.89995 4.19998V3.14998C9.89995 2.8715 10.0158 2.60443 10.2221 2.40751C10.4284 2.2106 10.7082 2.09998 11 2.09998ZM15.4 10.5C15.4 11.6139 14.9364 12.6822 14.1112 13.4698C13.2861 14.2575 12.1669 14.7 11 14.7C9.833 14.7 8.71384 14.2575 7.88868 13.4698C7.06352 12.6822 6.59995 11.6139 6.59995 10.5C6.59995 9.38607 7.06352 8.31778 7.88868 7.53013C8.71384 6.74247 9.833 6.29998 11 6.29998C12.1669 6.29998 13.2861 6.74247 14.1112 7.53013C14.9364 8.31778 15.4 9.38607 15.4 10.5ZM14.8896 15.6975L15.6672 16.4398C15.8747 16.6311 16.1526 16.7369 16.441 16.7345C16.7294 16.7321 17.0053 16.6217 17.2093 16.427C17.4132 16.2324 17.5289 15.969 17.5314 15.6937C17.5339 15.4184 17.423 15.1532 17.2226 14.9551L16.445 14.2128C16.2375 14.0215 15.9596 13.9157 15.6712 13.9181C15.3828 13.9205 15.1069 14.0309 14.9029 14.2256C14.699 14.4202 14.5833 14.6836 14.5808 14.9589C14.5783 15.2342 14.6892 15.4994 14.8896 15.6975ZM17.2215 4.56013C17.4278 4.75703 17.5436 5.02405 17.5436 5.30248C17.5436 5.5809 17.4278 5.84792 17.2215 6.04483L16.445 6.78718C16.3435 6.88746 16.2221 6.96745 16.0879 7.02248C15.9537 7.07751 15.8093 7.10648 15.6633 7.10769C15.5172 7.1089 15.3724 7.08233 15.2372 7.02954C15.102 6.97674 14.9792 6.89878 14.8759 6.80019C14.7726 6.7016 14.691 6.58437 14.6356 6.45533C14.5803 6.32629 14.5525 6.18802 14.5538 6.0486C14.555 5.90919 14.5854 5.7714 14.643 5.6433C14.7007 5.5152 14.7845 5.39933 14.8896 5.30248L15.6672 4.56013C15.8735 4.36328 16.1533 4.2527 16.445 4.2527C16.7366 4.2527 17.0164 4.36328 17.2226 4.56013H17.2215ZM18.6999 11.55C18.9917 11.55 19.2715 11.4394 19.4778 11.2424C19.6841 11.0455 19.7999 10.7785 19.7999 10.5C19.7999 10.2215 19.6841 9.95443 19.4778 9.75751C19.2715 9.5606 18.9917 9.44998 18.6999 9.44998H17.5999C17.3082 9.44998 17.0284 9.5606 16.8221 9.75751C16.6158 9.95443 16.5 10.2215 16.5 10.5C16.5 10.7785 16.6158 11.0455 16.8221 11.2424C17.0284 11.4394 17.3082 11.55 17.5999 11.55H18.6999ZM11 15.75C11.2917 15.75 11.5715 15.8606 11.7778 16.0575C11.9841 16.2544 12.1 16.5215 12.1 16.8V17.85C12.1 18.1285 11.9841 18.3955 11.7778 18.5924C11.5715 18.7894 11.2917 18.9 11 18.9C10.7082 18.9 10.4284 18.7894 10.2221 18.5924C10.0158 18.3955 9.89995 18.1285 9.89995 17.85V16.8C9.89995 16.5215 10.0158 16.2544 10.2221 16.0575C10.4284 15.8606 10.7082 15.75 11 15.75ZM5.55495 6.78718C5.65708 6.88473 5.77834 6.96213 5.9118 7.01495C6.04527 7.06778 6.18833 7.09499 6.33281 7.09504C6.47729 7.09509 6.62037 7.06797 6.75388 7.01524C6.88738 6.9625 7.0087 6.88519 7.1109 6.7877C7.2131 6.69021 7.29419 6.57447 7.34952 6.44707C7.40486 6.31967 7.43337 6.18311 7.43342 6.0452C7.43347 5.90728 7.40507 5.77071 7.34982 5.64327C7.29458 5.51583 7.21358 5.40003 7.11145 5.30248L6.33265 4.56013C6.12519 4.36886 5.84733 4.26303 5.55891 4.26542C5.27049 4.26781 4.9946 4.37824 4.79065 4.57292C4.5867 4.76759 4.47102 5.03095 4.46851 5.30625C4.466 5.58156 4.57688 5.84679 4.77725 6.04483L5.55495 6.78718ZM7.11035 15.6975L6.33265 16.4398C6.12519 16.6311 5.84733 16.7369 5.55891 16.7345C5.27049 16.7321 4.9946 16.6217 4.79065 16.427C4.5867 16.2324 4.47102 15.969 4.46851 15.6937C4.466 15.4184 4.57688 15.1532 4.77725 14.9551L5.55495 14.2128C5.76241 14.0215 6.04028 13.9157 6.32869 13.9181C6.61711 13.9205 6.893 14.0309 7.09695 14.2256C7.3009 14.4202 7.41659 14.6836 7.41909 14.9589C7.4216 15.2342 7.31072 15.4994 7.11035 15.6975ZM4.39995 11.55C4.69169 11.55 4.97148 11.4394 5.17777 11.2424C5.38406 11.0455 5.49995 10.7785 5.49995 10.5C5.49995 10.2215 5.38406 9.95443 5.17777 9.75751C4.97148 9.5606 4.69169 9.44998 4.39995 9.44998H3.29995C3.00821 9.44998 2.72842 9.5606 2.52213 9.75751C2.31584 9.95443 2.19995 10.2215 2.19995 10.5C2.19995 10.7785 2.31584 11.0455 2.52213 11.2424C2.72842 11.4394 3.00821 11.55 3.29995 11.55H4.39995Z" fill="#EBCB87"/>
</svg>
